<svg xmlns="http://www.w3.org/2000/svg" viewBox="0 0 512 512" role="img" aria-label="OBLinux black symbol"><g fill="none" stroke="#0B1118" stroke-linecap="round" stroke-linejoin="round"><path d="M337 409a188 188 0 1 1 0-306" stroke-width="48"/><path d="M217 141c61 48 61 182 0 230" stroke-width="42"/><path d="M287 115h54c66 0 103 34 103 82 0 52-42 82-103 82h-66" stroke-width="48"/><path d="M275 279h68c66 0 101 28 101 79 0 52-38 84-105 84h-91" stroke-width="48"/><path d="M239 120c45 42 68 77 68 119M239 392c43-38 66-76 68-113" stroke-width="42"/></g></svg>
